<svg width="58" height="64" viewBox="0 0 58 64" fill="none" xmlns="http://www.w3.org/2000/svg">
<path d="M19.8421 18.4034C19.8421 9.6041 11.9663 3.97252 11.6305 3.74854C11.1257 3.39089 10.5304 3.19976 9.92105 3.19976C9.31175 3.19976 8.71638 3.39089 8.21158 3.74854C7.87579 4.00452 0 9.6041 0 18.4034C0 21.1615 1.04525 23.8066 2.90581 25.7568C4.76637 27.707 7.28983 28.8027 9.92105 28.8027C12.5523 28.8027 15.0757 27.707 16.9363 25.7568C18.7969 23.8066 19.8421 21.1615 19.8421 18.4034V18.4034ZM9.92105 22.4031C8.90904 22.4031 7.93848 21.9817 7.22288 21.2317C6.50728 20.4816 6.10526 19.4642 6.10526 18.4034C6.35647 15.3697 7.72515 12.5578 9.92105 10.564C12.1301 12.547 13.5017 15.3649 13.7368 18.4034C13.7368 19.4642 13.3348 20.4816 12.6192 21.2317C11.9036 21.9817 10.9331 22.4031 9.92105 22.4031V22.4031ZM28.42 26.1469C27.9152 25.7892 27.3198 25.5981 26.7105 25.5981C26.1012 25.5981 25.5059 25.7892 25.0011 26.1469C24.4821 26.5308 12.2105 35.4262 12.2105 48.8011C12.2105 52.8321 13.7382 56.698 16.4575 59.5484C19.1768 62.3987 22.8649 64 26.7105 64C30.5562 64 34.2443 62.3987 36.9636 59.5484C39.6829 56.698 41.2105 52.8321 41.2105 48.8011C41.2105 35.2022 29 26.4988 28.42 26.1469V26.1469ZM26.7105 57.6005C25.6081 57.6005 24.5165 57.3729 23.498 56.9307C22.4795 56.4885 21.5541 55.8403 20.7746 55.0232C19.995 54.2061 19.3767 53.2361 18.9548 52.1685C18.5329 51.1009 18.3158 49.9567 18.3158 48.8011C18.3158 41.4097 23.8411 35.4582 26.7411 32.8024C29.6105 35.3302 35.1053 41.2177 35.1053 48.8011C35.1053 49.9567 34.8881 51.1009 34.4663 52.1685C34.0444 53.2361 33.426 54.2061 32.6465 55.0232C31.867 55.8403 30.9416 56.4885 29.9231 56.9307C28.9046 57.3729 27.8129 57.6005 26.7105 57.6005V57.6005ZM47.4989 0.548783C46.9941 0.191127 46.3988 0 45.7895 0C45.1802 0 44.5848 0.191127 44.08 0.548783C43.6526 0.868759 33.5789 8.16421 33.5789 19.2034C33.5789 22.5979 34.8654 25.8534 37.1553 28.2537C39.4452 30.6539 42.551 32.0024 45.7895 32.0024C49.0279 32.0024 52.1337 30.6539 54.4236 28.2537C56.7135 25.8534 58 22.5979 58 19.2034C58 8.03622 47.9263 0.836761 47.4989 0.548783ZM45.7895 25.6029C44.1703 25.6029 42.6174 24.9287 41.4724 23.7285C40.3274 22.5284 39.6842 20.9006 39.6842 19.2034C39.8934 16.8929 40.5413 14.6496 41.5898 12.6054C42.6383 10.5612 44.0662 8.7575 45.7895 7.30027C47.5192 8.75129 48.9516 10.5535 50.0007 12.5989C51.0498 14.6443 51.694 16.8907 51.8947 19.2034C51.8947 20.9006 51.2515 22.5284 50.1065 23.7285C48.9616 24.9287 47.4087 25.6029 45.7895 25.6029Z" fill="white"/>
</svg>
